<svg xmlns="http://www.w3.org/2000/svg" xmlns:xlink="http://www.w3.org/1999/xlink" xml:space="preserve" version="1.1" style="shape-rendering:geometricPrecision;text-rendering:geometricPrecision;image-rendering:optimizeQuality;" viewBox="0 0 499 822.5" x="0px" y="0px" fill-rule="evenodd" clip-rule="evenodd"><defs><style type="text/css">
   
    .fil0 {fill:black}
   
  </style></defs><g><path class="fil0" d="M335 107l0 75 -184 0 0 -75c14,-107 170,-107 184,0zm124 117l0 387 -419 0 0 -387c145,0 265,0 419,0zm-98 -42l0 -75c-9,-143 -227,-143 -236,0l0 75 -100 0c-14,0 -25,11 -25,25l0 406c0,24 20,45 45,45l409 0c25,0 45,-21 45,-45l0 -406c0,-14 -11,-25 -25,-25l-113 0z"/><rect class="fil0" x="58" y="241" width="383" height="353"/></g><text x="0" y="673" fill="#000000" font-size="5px" font-weight="bold" font-family="'Helvetica Neue', Helvetica, Arial-Unicode, Arial, Sans-serif">Created by TRISULA</text><text x="0" y="678" fill="#000000" font-size="5px" font-weight="bold" font-family="'Helvetica Neue', Helvetica, Arial-Unicode, Arial, Sans-serif">from the Noun Project</text></svg>