<svg xmlns="http://www.w3.org/2000/svg" xmlns:xlink="http://www.w3.org/1999/xlink" version="1.1" x="0px" y="0px" viewBox="0 0 120 150" enable-background="new 0 0 120 120" xml:space="preserve"><path d="M60,111.498c13.757,0,26.689-5.357,36.414-15.084C106.143,86.691,111.5,73.758,111.5,60  c0-13.758-5.357-26.691-15.086-36.416C86.688,13.859,73.757,8.502,60,8.502c-13.756,0-26.689,5.356-36.418,15.082  C13.856,33.31,8.5,46.243,8.5,60c0,13.757,5.356,26.689,15.082,36.414C33.311,106.141,46.244,111.498,60,111.498z M25.703,25.706  C34.864,16.546,47.045,11.502,60,11.502s25.134,5.044,34.293,14.203C103.455,34.865,108.5,47.043,108.5,60  c0,12.957-5.045,25.134-14.207,34.292c-9.159,9.16-21.338,14.205-34.293,14.205s-25.136-5.045-34.297-14.205  C16.544,85.135,11.5,72.957,11.5,60C11.5,47.043,16.544,34.865,25.703,25.706z M46.6,84.227L28.134,63.225l2.254-1.98l16.353,18.6  L89.68,36.905l2.121,2.121L46.6,84.227z"/></svg>
