<svg xmlns:dc="http://purl.org/dc/elements/1.1/" xmlns:cc="http://creativecommons.org/ns#" xmlns:rdf="http://www.w3.org/1999/02/22-rdf-syntax-ns#" xmlns:svg="http://www.w3.org/2000/svg" xmlns="http://www.w3.org/2000/svg" xmlns:sodipodi="http://sodipodi.sourceforge.net/DTD/sodipodi-0.dtd" xmlns:inkscape="http://www.inkscape.org/namespaces/inkscape" version="1.1" x="0px" y="0px" viewBox="0 0 100 125"><g transform="translate(0,-952.36218)"><path style="font-size:medium;font-style:normal;font-variant:normal;font-weight:normal;font-stretch:normal;text-indent:0;text-align:start;text-decoration:none;line-height:normal;letter-spacing:normal;word-spacing:normal;text-transform:none;direction:ltr;block-progression:tb;writing-mode:lr-tb;text-anchor:start;baseline-shift:baseline;opacity:1;color:#000000;fill:#000000;fill-opacity:1;stroke:none;stroke-width:2;marker:none;visibility:visible;display:inline;overflow:visible;enable-background:accumulate;font-family:Sans;-inkscape-font-specification:Sans" d="M 50 7 C 26.263601 7 7 26.26358 7 50 C 7 73.7364 26.263601 93 50 93 C 73.736399 93 93 73.7364 93 50 C 93 26.26358 73.736399 7 50 7 z M 50 9 C 72.655519 9 91 27.34446 91 50 C 91 72.6555 72.655519 91 50 91 C 27.344481 91 9 72.6555 9 50 C 9 27.34446 27.344481 9 50 9 z M 31.09375 49 A 1.0043849 1.0043849 0 0 0 31.28125 51 L 68.71875 51 A 1.0001 1.0001 0 1 0 68.71875 49 L 31.28125 49 A 1.0001 1.0001 0 0 0 31.09375 49 z " transform="translate(0,952.36218)"/></g></svg>
