<svg xmlns="http://www.w3.org/2000/svg" xmlns:xlink="http://www.w3.org/1999/xlink" viewBox="0 0 40 61.25" version="1.1" x="0px" y="0px"><title>my_off copy 2</title><desc>Created with Sketch.</desc><g stroke="none" stroke-width="1" fill="none" fill-rule="evenodd"><g transform="translate(-28.000000, -408.000000)"><g transform="translate(0.000000, 384.000000)"><rect x="0" y="0" width="96" height="97"/><g transform="translate(28.000000, 24.250000)" fill="#000000"><g><path d="M39,47.9947917 L1,47.9947917 C0.4,47.9947917 0,47.590625 0,46.984375 L0,41.9322917 C0,41.7302083 0.1,41.6291667 0.1,41.4270833 C0.7,32.7375 6.7,25.6645833 14.7,23.4416667 C10.7,21.521875 7.9,17.3791667 7.9,12.5291667 C7.9,5.86041667 13.3,0.404166667 19.9,0.404166667 C26.5,0.404166667 31.9,5.86041667 31.9,12.5291667 C31.9,19.1979167 26.5,24.6541667 19.9,24.6541667 L19.9,24.6541667 C10,24.6541667 1.9,32.8385417 1.9,42.8416667 L1.9,42.8416667 L1.9,42.8416667 L1.9,45.8729167 L37.9,45.8729167 L37.9,42.8416667 L37.9,42.8416667 L37.9,42.8416667 C37.9,36.7791667 35,31.525 30.5,28.190625 L30.5,28.190625 C30.3,27.9885417 30.2,27.7864583 30.2,27.4833333 C30.2,26.978125 30.6,26.4729167 31.2,26.4729167 C31.5,26.4729167 31.7,26.5739583 31.9,26.7760417 C36.3,30.2114583 39.3,35.465625 39.8,41.4270833 C39.9,41.528125 39.9,41.7302083 39.9,41.9322917 L39.9,46.984375 C40,47.4895833 39.6,47.9947917 39,47.9947917 L39,47.9947917 Z M30,12.6302083 C30,7.07291667 25.5,2.52604167 20,2.52604167 C14.5,2.52604167 10,7.07291667 10,12.6302083 C10,18.1875 14.5,22.734375 20,22.734375 C25.5,22.734375 30,18.1875 30,12.6302083 L30,12.6302083 Z"/></g></g></g></g></g><text x="0" y="64" fill="#000000" font-size="5px" font-weight="bold" font-family="'Helvetica Neue', Helvetica, Arial-Unicode, Arial, Sans-serif">Created by purplestudio</text><text x="0" y="69" fill="#000000" font-size="5px" font-weight="bold" font-family="'Helvetica Neue', Helvetica, Arial-Unicode, Arial, Sans-serif">from the Noun Project</text></svg>